<svg width="20" height="20" viewBox="0 0 20 20" fill="none" xmlns="http://www.w3.org/2000/svg">
<path d="M14.0416 0H5.95743C4.37781 0.00185632 2.86345 0.630245 1.74659 1.74729C0.629725 2.86434 0.00159073 4.37882 0 5.95843L0 14.0426C0.00185632 15.6222 0.630245 17.1366 1.74729 18.2534C2.86434 19.3703 4.37882 19.9984 5.95843 20H14.0426C15.6222 19.9981 17.1366 19.3698 18.2534 18.2527C19.3703 17.1357 19.9984 15.6212 20 14.0416V5.95743C19.9981 4.37781 19.3698 2.86345 18.2527 1.74659C17.1357 0.629725 15.6212 0.00159073 14.0416 0V0ZM17.9885 14.0416C17.9885 14.5599 17.8864 15.0731 17.688 15.552C17.4897 16.0308 17.199 16.466 16.8325 16.8325C16.466 17.199 16.0308 17.4897 15.552 17.688C15.0731 17.8864 14.5599 17.9885 14.0416 17.9885H5.95743C4.91081 17.9882 3.90716 17.5723 3.16719 16.8321C2.42722 16.0919 2.01152 15.0882 2.01152 14.0416V5.95743C2.01179 4.91081 2.42774 3.90716 3.1679 3.16719C3.90806 2.42722 4.91182 2.01152 5.95843 2.01152H14.0426C15.0892 2.01179 16.0928 2.42774 16.8328 3.1679C17.5728 3.90806 17.9885 4.91182 17.9885 5.95843V14.0426V14.0416Z" fill="#697279"/>
<path d="M9.9984 4.44446C8.52592 4.44674 7.11441 5.03276 6.0733 6.07407C5.0322 7.11537 4.44645 8.52699 4.44446 9.99948C4.44617 11.4723 5.03194 12.8844 6.07331 13.926C7.11467 14.9675 8.52662 15.5536 9.99948 15.5556C11.4725 15.5539 12.8847 14.9679 13.9263 13.9263C14.9679 12.8847 15.5539 11.4725 15.5556 9.99948C15.5533 8.52662 14.967 7.11479 13.9252 6.07362C12.8834 5.03246 11.4713 4.44696 9.9984 4.44553V4.44446ZM9.9984 13.3951C9.09811 13.3951 8.23469 13.0375 7.59809 12.4009C6.96149 11.7643 6.60385 10.9008 6.60385 10.0006C6.60385 9.10026 6.96149 8.23684 7.59809 7.60024C8.23469 6.96364 9.09811 6.606 9.9984 6.606C10.8987 6.606 11.7621 6.96364 12.3987 7.60024C13.0353 8.23684 13.393 9.10026 13.393 10.0006C13.393 10.9008 13.0353 11.7643 12.3987 12.4009C11.7621 13.0375 10.8987 13.3951 9.9984 13.3951Z" fill="#697279"/>
<path d="M15.5556 5.5556C16.1692 5.5556 16.6667 5.05813 16.6667 4.44449C16.6667 3.83084 16.1692 3.33337 15.5556 3.33337C14.9419 3.33337 14.4445 3.83084 14.4445 4.44449C14.4445 5.05813 14.9419 5.5556 15.5556 5.5556Z" fill="#697279"/>
</svg>
