<svg width="21" height="19" viewBox="0 0 21 19" fill="none" xmlns="http://www.w3.org/2000/svg">
<path d="M19.4456 0.00176981C19.1742 0.0144848 18.9186 0.0939534 18.6913 0.182959H18.6882C18.4578 0.275142 17.3628 0.73924 15.6997 1.44174C14.0366 2.14743 11.8781 3.06291 9.73531 3.97203C5.45611 5.7871 1.24949 7.57356 1.24949 7.57356L1.29999 7.55449C1.29999 7.55449 1.00966 7.64985 0.706705 7.85965C0.552073 7.96137 0.381662 8.10123 0.233342 8.32056C0.0850214 8.5399 -0.0348975 8.87685 0.0092834 9.22333C0.0818659 9.8114 0.460556 10.1642 0.731951 10.3581C1.0065 10.5552 1.26843 10.6474 1.26843 10.6474H1.27474L5.21943 11.9857C5.39615 12.5578 6.42177 15.9527 6.66792 16.7347C6.81309 17.202 6.95509 17.4944 7.13182 17.717C7.21702 17.8314 7.31801 17.9268 7.43793 18.003C7.48526 18.0317 7.53575 18.0539 7.58625 18.073C7.60202 18.0825 7.6178 18.0857 7.63674 18.0889L7.59571 18.0793C7.60834 18.0825 7.6178 18.0921 7.62727 18.0952C7.65883 18.1048 7.68092 18.1079 7.72194 18.1143C8.34678 18.305 8.84855 17.914 8.84855 17.914L8.87695 17.8918L11.2059 15.7557L15.1096 18.7723L15.1979 18.8104C16.0121 19.1696 16.8358 18.9694 17.2713 18.6165C17.7099 18.2605 17.8803 17.806 17.8803 17.806L17.9087 17.7329L20.9256 2.1665C21.0108 1.78187 21.0329 1.42267 20.9382 1.07301C20.8436 0.723347 20.6006 0.395935 20.3071 0.221104C20.0104 0.0430934 19.717 -0.0109452 19.4456 0.00176981ZM19.3635 1.67061C19.3604 1.72147 19.3698 1.71512 19.3477 1.81366V1.82319L16.3592 17.2274C16.3466 17.2497 16.3245 17.2974 16.2646 17.345C16.2015 17.3959 16.151 17.4277 15.889 17.3228L11.1144 13.6354L8.23002 16.2833L8.83592 12.3862C8.83592 12.3862 16.3151 5.36433 16.6369 5.06234C16.9588 4.76036 16.8515 4.69679 16.8515 4.69679C16.8736 4.32805 16.3656 4.58871 16.3656 4.58871L6.52907 10.7269L6.52591 10.711L1.81122 9.11207V9.1089C1.80806 9.1089 1.80175 9.10572 1.7986 9.10572C1.80175 9.10572 1.82384 9.09618 1.82384 9.09618L1.84909 9.08347L1.87433 9.07393C1.87433 9.07393 6.08411 7.28747 10.3633 5.4724C12.5061 4.56328 14.6646 3.6478 16.3245 2.94212C17.9845 2.23961 19.212 1.72465 19.2815 1.69604C19.3477 1.67061 19.3162 1.67061 19.3635 1.67061Z" fill="#697279"/>
</svg>
