<svg width="24" height="24" viewBox="0 0 24 24" fill="none" xmlns="http://www.w3.org/2000/svg">
<path d="M8.02163 6.28988C7.83854 6.26313 7.65181 6.29989 7.49252 6.39403H7.47893C7.1091 6.6108 6.77595 6.8848 6.49186 7.2058C6.25576 7.47877 6.12768 7.75498 6.09405 8.02083C6.07399 8.1793 6.08758 8.33778 6.1348 8.48913L6.15162 8.49948C6.41747 9.28086 6.76482 10.0325 7.18915 10.7401C7.73574 11.7343 8.40841 12.6537 9.19047 13.4756L9.21375 13.5092L9.25063 13.5364L9.27391 13.5636L9.30107 13.5869C10.126 14.3712 11.0476 15.0471 12.0437 15.5979C13.1821 16.2175 13.873 16.5106 14.2875 16.6322V16.6386C14.4092 16.6756 14.5198 16.6923 14.631 16.6923C14.9844 16.6664 15.3189 16.523 15.5812 16.2849C15.9008 16.0007 16.1717 15.6662 16.3833 15.2946V15.2881C16.5819 14.9142 16.5146 14.5604 16.2281 14.321C15.6542 13.8194 15.0337 13.3739 14.3749 12.9905C13.9337 12.7512 13.4855 12.8961 13.3038 13.1386L12.9163 13.6269C12.7177 13.8695 12.3567 13.8359 12.3567 13.8359L12.3464 13.8424C9.65489 13.1548 8.93691 10.4297 8.93691 10.4297C8.93691 10.4297 8.90327 10.059 9.15231 9.87014L9.63743 9.47944C9.86965 9.29057 10.0314 8.84296 9.78232 8.40116C9.4016 7.74149 8.95703 7.12078 8.45501 6.54798C8.34526 6.41293 8.19129 6.32106 8.02034 6.28859L8.02163 6.28988Z" fill="#697279"/>
<path d="M12.5696 5.10522C12.2975 5.10522 12.0768 5.32587 12.0768 5.59805C12.0768 5.87023 12.2975 6.09088 12.5696 6.09088C13.816 6.09088 14.8516 6.49828 15.6698 7.27836C16.091 7.70554 16.4188 8.21118 16.6341 8.76452C16.8501 9.31994 16.9484 9.9122 16.9232 10.5055C16.9116 10.7773 17.1227 11.0072 17.3946 11.0187C17.6666 11.0303 17.8964 10.8192 17.9079 10.5473C17.939 9.81747 17.818 9.08931 17.5526 8.40718C17.2873 7.72509 16.8834 7.10352 16.3659 6.58024L16.356 6.57077C15.3408 5.59987 14.0539 5.10522 12.5696 5.10522Z" fill="#697279"/>
<path d="M12.5362 6.7262C12.264 6.7262 12.0433 6.94685 12.0433 7.21903C12.0433 7.49121 12.264 7.71186 12.5362 7.71186H12.5522C13.4516 7.77523 14.106 8.07501 14.5648 8.56709C15.0345 9.07388 15.2778 9.70335 15.2597 10.4822C15.2534 10.7543 15.469 10.98 15.741 10.9863C16.0132 10.9926 16.2389 10.7771 16.2452 10.505C16.2689 9.48238 15.9399 8.60057 15.2872 7.89649L15.2864 7.89556C14.6195 7.1799 13.7045 6.80129 12.6022 6.7273L12.5857 6.7262H12.5362Z" fill="#697279"/>
<path d="M12.5178 8.37667C12.2459 8.36237 12.014 8.57111 11.9997 8.84292C11.9854 9.11472 12.1942 9.34666 12.4659 9.36097C12.8786 9.38269 13.1416 9.50645 13.307 9.67346C13.4732 9.84119 13.5974 10.1098 13.62 10.5309C13.6347 10.8027 13.8668 11.0112 14.1387 10.9965C14.4104 10.9819 14.6189 10.7498 14.6043 10.4779C14.5725 9.88651 14.3874 9.36365 14.0074 8.9799C13.6266 8.59544 13.1067 8.40767 12.5178 8.37667Z" fill="#697279"/>
<path fill-rule="evenodd" clip-rule="evenodd" d="M7.1362 2.52582C10.2726 1.82473 13.5252 1.82473 16.6617 2.52582L16.9959 2.60052C18.8655 3.01843 20.341 4.45238 20.8123 6.30925C21.6084 9.44644 21.6084 12.7328 20.8123 15.87C20.341 17.7269 18.8654 19.1608 16.9959 19.5787L16.6617 19.6535C14.6915 20.0938 12.6756 20.2576 10.6713 20.1447L8.05619 22.4846C7.85538 22.6642 7.57271 22.7204 7.31846 22.6312C7.06421 22.542 6.87865 22.3215 6.83416 22.0557L6.40164 19.472C4.72366 18.9506 3.42269 17.5921 2.98565 15.87C2.18952 12.7328 2.18952 9.44644 2.98565 6.30925C3.45687 4.45238 4.93246 3.01843 6.80204 2.60052L7.1362 2.52582ZM16.3392 3.9687C13.4151 3.31509 10.3828 3.31509 7.45873 3.9687L7.12456 4.0434C5.79902 4.33969 4.75281 5.35639 4.41871 6.67292C3.68314 9.57145 3.68314 12.6078 4.41871 15.5063C4.75281 16.8228 5.79901 17.8395 7.12456 18.1358L7.21284 18.1555C7.50646 18.2212 7.731 18.4582 7.78068 18.7549L8.07073 20.4877L9.91625 18.8364C10.0653 18.7031 10.2619 18.6358 10.4614 18.65C12.4263 18.789 14.4064 18.6426 16.3392 18.2105L16.6733 18.1358C17.9989 17.8395 19.0451 16.8228 19.3792 15.5063C20.1147 12.6078 20.1147 9.57145 19.3792 6.67292C19.0451 5.35639 17.9989 4.3397 16.6733 4.0434L16.3392 3.9687Z" fill="#697279"/>
</svg>
