<svg width="34" height="34" viewBox="0 0 34 34" fill="none" xmlns="http://www.w3.org/2000/svg">
<g clip-path="url(#clip0_753_324)">
<path d="M11.5989 32.976H11.5986L1.56737 32.9759L1.56435 32.976C1.45037 32.9763 1.33919 32.9407 1.24663 32.8742C1.15407 32.8077 1.08484 32.7137 1.0488 32.6055C1.01275 32.4974 1.01173 32.3807 1.04588 32.2719C1.08003 32.1632 1.1476 32.068 1.239 31.9999L1.2424 31.9973L3.23321 30.5004L4.06564 29.8744L3.40639 29.0681C2.41468 27.8552 1.70561 26.4366 1.33071 24.9154C0.955807 23.3942 0.92448 21.8086 1.23901 20.2737C1.55353 18.7389 2.20601 17.2934 3.14904 16.0423C4.09207 14.7911 5.30196 13.7658 6.69081 13.0407L6.69083 13.0407C8.00041 12.3569 8.86887 12.3385 9.48452 12.5402C10.1333 12.7528 10.7193 13.2787 11.3134 14.119C11.8064 14.8162 12.2367 15.6259 12.6972 16.4925C12.7959 16.6782 12.896 16.8666 12.9984 17.057C13.5509 18.0844 14.1804 19.1909 14.9852 19.9956C15.8145 20.8249 16.9026 21.3624 17.876 21.7933C18.1376 21.9092 18.3891 22.0168 18.6305 22.1201C19.3478 22.4272 19.9765 22.6963 20.5209 23.0301C21.2154 23.456 21.5702 23.8734 21.6867 24.3832C21.8111 24.9278 21.7223 25.8279 20.9296 27.3381C20.0364 29.0395 18.6949 30.4641 17.0502 31.4579C15.4056 32.4516 13.5205 32.9766 11.5989 32.976Z" stroke="#19BECB" stroke-width="2"/>
<path d="M33.3585 23.4816L30.8615 21.6081C32.7875 19.327 33.877 16.4566 33.9497 13.472C34.0225 10.4874 33.0741 7.56744 31.2616 5.19513C29.4491 2.82283 26.8809 1.14041 23.9821 0.426221C21.0833 -0.287968 18.0276 0.00887735 15.3204 1.26765C12.6133 2.52641 10.417 4.67167 9.09493 7.34847C7.77288 10.0253 7.40428 13.0732 8.05013 15.988C8.69598 18.9028 10.3176 21.5098 12.6466 23.3776C14.9756 25.2454 17.8725 26.2621 20.858 26.2595H32.4325C32.7564 26.2595 33.0721 26.1576 33.3349 25.9682C33.5976 25.7788 33.7941 25.5116 33.8966 25.2043C33.999 24.897 34.0021 24.5653 33.9056 24.2561C33.809 23.9469 33.6176 23.676 33.3585 23.4816ZM20.858 20.8581C20.5528 20.8581 20.2544 20.7676 20.0006 20.598C19.7468 20.4284 19.549 20.1874 19.4322 19.9054C19.3154 19.6234 19.2849 19.3131 19.3444 19.0138C19.404 18.7144 19.5509 18.4394 19.7668 18.2236C19.9826 18.0078 20.2576 17.8608 20.557 17.8012C20.8563 17.7417 21.1666 17.7722 21.4486 17.889C21.7306 18.0059 21.9716 18.2037 22.1412 18.4574C22.3108 18.7112 22.4013 19.0096 22.4013 19.3148C22.4013 19.7241 22.2387 20.1167 21.9493 20.4061C21.6599 20.6955 21.2673 20.8581 20.858 20.8581ZM22.4013 14.8749V15.4567C22.4013 15.866 22.2387 16.2585 21.9493 16.5479C21.6599 16.8373 21.2673 16.9999 20.858 16.9999C20.4487 16.9999 20.0562 16.8373 19.7668 16.5479C19.4774 16.2585 19.3148 15.866 19.3148 15.4567V14.7977C19.3072 14.1689 19.5021 13.5543 19.8706 13.0446C20.239 12.535 20.7616 12.1573 21.3611 11.9674C21.8088 11.8346 22.1858 11.5301 22.4098 11.1205C22.6339 10.7108 22.6869 10.2291 22.5572 9.78056C22.4777 9.49281 22.325 9.23055 22.1141 9.01933C21.9031 8.80811 21.6411 8.65512 21.3534 8.57527C21.0854 8.50059 20.8037 8.48917 20.5306 8.54193C20.2574 8.59469 20.0002 8.71018 19.7793 8.87929C19.5653 9.04366 19.3921 9.25521 19.2733 9.49745C19.1544 9.7397 19.0931 10.0061 19.0941 10.2759C19.0941 10.6852 18.9315 11.0778 18.6421 11.3672C18.3527 11.6566 17.9601 11.8192 17.5508 11.8192C17.1415 11.8192 16.749 11.6566 16.4596 11.3672C16.1701 11.0778 16.0076 10.6852 16.0076 10.2759C16.0069 9.38249 16.2528 8.50617 16.7183 7.74354C17.1838 6.98091 17.8507 6.36156 18.6457 5.95373C19.4406 5.54591 20.3327 5.36542 21.2237 5.43216C22.1146 5.49891 22.9699 5.81029 23.6952 6.332C24.4205 6.85371 24.9878 7.56551 25.3344 8.38898C25.6811 9.21244 25.7937 10.1156 25.6599 10.999C25.5261 11.8824 25.1511 12.7117 24.5761 13.3956C24.0012 14.0795 23.2486 14.5913 22.4013 14.8749Z" fill="#19BECB"/>
</g>
<defs>
<clipPath id="clip0_753_324">
<rect width="34" height="34" fill="white"/>
</clipPath>
</defs>
</svg>
